<svg width="40" height="40" viewBox="0 0 40 40" fill="none" xmlns="http://www.w3.org/2000/svg">
<rect x="0.5" y="0.5" width="39" height="39" rx="19.5" fill="#F1F9FF" fill-opacity="0.7"/>
<rect x="0.5" y="0.5" width="39" height="39" rx="19.5" stroke="#3498DB"/>
<path d="M14.8076 8C15.0304 8 15.244 8.0885 15.4016 8.24603C15.5591 8.40356 15.6476 8.61722 15.6476 8.84V10.4108H24.668V8.8508C24.668 8.62802 24.7565 8.41436 24.914 8.25683C25.0716 8.0993 25.2852 8.0108 25.508 8.0108C25.7308 8.0108 25.9444 8.0993 26.102 8.25683C26.2595 8.41436 26.348 8.62802 26.348 8.8508V10.4108H29.6C30.2363 10.4108 30.8466 10.6635 31.2966 11.1133C31.7467 11.5631 31.9997 12.1733 32 12.8096V29.6012C31.9997 30.2375 31.7467 30.8477 31.2966 31.2975C30.8466 31.7473 30.2363 32 29.6 32H10.4C9.76369 32 9.15342 31.7473 8.70337 31.2975C8.25332 30.8477 8.00032 30.2375 8 29.6012V12.8096C8.00032 12.1733 8.25332 11.5631 8.70337 11.1133C9.15342 10.6635 9.76369 10.4108 10.4 10.4108H13.9676V8.8388C13.9679 8.61623 14.0566 8.40288 14.2141 8.24561C14.3716 8.08833 14.585 8 14.8076 8ZM9.68 17.2904V29.6012C9.68 29.6958 9.69862 29.7894 9.73481 29.8767C9.77099 29.9641 9.82403 30.0435 9.89088 30.1103C9.95774 30.1772 10.0371 30.2302 10.1245 30.2664C10.2118 30.3026 10.3054 30.3212 10.4 30.3212H29.6C29.6946 30.3212 29.7882 30.3026 29.8755 30.2664C29.9629 30.2302 30.0423 30.1772 30.1091 30.1103C30.176 30.0435 30.229 29.9641 30.2652 29.8767C30.3014 29.7894 30.32 29.6958 30.32 29.6012V17.3072L9.68 17.2904ZM16.0004 25.5428V27.542H14V25.5428H16.0004ZM20.9996 25.5428V27.542H19.0004V25.5428H20.9996ZM26 25.5428V27.542H23.9996V25.5428H26ZM16.0004 20.7704V22.7696H14V20.7704H16.0004ZM20.9996 20.7704V22.7696H19.0004V20.7704H20.9996ZM26 20.7704V22.7696H23.9996V20.7704H26ZM13.9676 12.0896H10.4C10.3054 12.0896 10.2118 12.1082 10.1245 12.1444C10.0371 12.1806 9.95774 12.2336 9.89088 12.3005C9.82403 12.3673 9.77099 12.4467 9.73481 12.5341C9.69862 12.6214 9.68 12.715 9.68 12.8096V15.6116L30.32 15.6284V12.8096C30.32 12.715 30.3014 12.6214 30.2652 12.5341C30.229 12.4467 30.176 12.3673 30.1091 12.3005C30.0423 12.2336 29.9629 12.1806 29.8755 12.1444C29.7882 12.1082 29.6946 12.0896 29.6 12.0896H26.348V13.2044C26.348 13.4272 26.2595 13.6408 26.102 13.7984C25.9444 13.9559 25.7308 14.0444 25.508 14.0444C25.2852 14.0444 25.0716 13.9559 24.914 13.7984C24.7565 13.6408 24.668 13.4272 24.668 13.2044V12.0896H15.6476V13.1936C15.6476 13.4164 15.5591 13.63 15.4016 13.7876C15.244 13.9451 15.0304 14.0336 14.8076 14.0336C14.5848 14.0336 14.3712 13.9451 14.2136 13.7876C14.0561 13.63 13.9676 13.4164 13.9676 13.1936V12.0896Z" fill="#3498DB"/>
</svg>
