   <svg
          width="277"
          height="155"
          viewBox="0 0 277 155"
          fill="none"
          xmlns="http://www.w3.org/2000/svg"
        >
          <g clip-path="url(#clip0_1_1577)">
            <path
              d="M269.943 59.8073L267.006 67.3202L269.088 68.134L272.025 60.6211L269.943 59.8073Z"
              fill="#0341B5"
            />
            <path
              d="M86.5043 41.3847L84.8391 42.876L90.2207 48.8848L91.8858 47.3935L86.5043 41.3847Z"
              fill="#0CBC8B"
            />
            <path
              d="M111.177 68.279L104.721 73.1149L106.061 74.9042L112.517 70.0683L111.177 68.279Z"
              fill="#0341B5"
            />
            <path
              d="M185.848 12.7852L184.316 14.4131L190.191 19.9412L191.723 18.3133L185.848 12.7852Z"
              fill="#0341B5"
            />
            <path
              d="M143.132 14.5828L139.112 21.5762L141.05 22.6903L145.07 15.6969L143.132 14.5828Z"
              fill="#0CBC8B"
            />
            <path
              d="M201.513 74.3879L199.623 75.5808L203.928 82.4025L205.818 81.2096L201.513 74.3879Z"
              fill="#0CBC8B"
            />
            <path
              d="M113.857 107.606L111.858 108.605L115.463 115.821L117.462 114.822L113.857 107.606Z"
              fill="#0CBC8B"
            />
            <path
              d="M84.6015 88.6196L82.2852 96.3463L84.4261 96.9881L86.7424 89.2614L84.6015 88.6196Z"
              fill="#0341B5"
            />
            <path
              d="M224.532 112.697L217.832 117.19L219.077 119.046L225.777 114.553L224.532 112.697Z"
              fill="#0341B5"
            />
            <path
              d="M225.535 0.000598592L221.515 6.99384L223.453 8.10788L227.473 1.11464L225.535 0.000598592Z"
              fill="#0CBC8B"
            />
            <path
              d="M2.08178 57.213L-0.000152588 58.0267L2.93641 65.5396L5.01834 64.7259L2.08178 57.213Z"
              fill="#0CBC8B"
            />
            <path
              d="M218.2 47.9315L216.86 49.7208L223.316 54.5567L224.656 52.7674L218.2 47.9315Z"
              fill="#0CBC8B"
            />
            <path
              d="M36.8491 14.9727L30.9744 20.5008L32.5063 22.1287L38.381 16.6006L36.8491 14.9727Z"
              fill="#0341B5"
            />
            <path
              d="M101.918 8.38965L99.98 9.50372L104 16.4971L105.938 15.3831L101.918 8.38965Z"
              fill="#0341B5"
            />
            <path
              d="M22.8749 96.1955L18.5701 103.017L20.4605 104.21L24.7653 97.3885L22.8749 96.1955Z"
              fill="#0CBC8B"
            />
            <path
              d="M3.80745 114.883L2.56238 116.74L9.26558 121.233L10.5107 119.376L3.80745 114.883Z"
              fill="#0341B5"
            />
            <path
              d="M262.421 25.7994L260.483 26.9134L264.503 33.9067L266.441 32.7926L262.421 25.7994Z"
              fill="#0341B5"
            />
            <path
              d="M178.436 44.8576L173.055 50.8665L174.72 52.3578L180.102 46.3489L178.436 44.8576Z"
              fill="#0341B5"
            />
            <path
              d="M131.192 112.587L127.587 119.803L129.587 120.802L133.192 113.586L131.192 112.587Z"
              fill="#0CBC8B"
            />
            <path
              d="M160.449 93.6009L158.308 94.2427L160.625 101.969L162.766 101.328L160.449 93.6009Z"
              fill="#0341B5"
            />
            <path
              d="M161.17 98.0103L153.551 92.2188C153.384 92.0917 153.192 92.0007 152.987 91.9518C152.783 91.9029 152.57 91.8972 152.363 91.9348C152.157 91.9725 151.96 92.0529 151.786 92.1707C151.612 92.2886 151.464 92.4415 151.352 92.6195C151.156 92.9547 151.091 93.3508 151.17 93.731C151.25 94.1112 151.467 94.4485 151.781 94.6774L153.415 95.9191L146.485 94.3723C145.718 94.1868 144.657 94.4503 144.506 95.3248C144.426 95.6576 144.461 96.0077 144.605 96.318C144.75 96.6284 144.995 96.8807 145.301 97.0337C145.297 97.0405 145.295 97.0476 145.293 97.055C145.292 97.0607 145.292 97.0665 145.293 97.0723L144.109 96.7864C143.89 96.7336 143.661 96.7303 143.441 96.7769C143.22 96.8235 143.013 96.9187 142.833 97.0556C142.654 97.1925 142.508 97.3677 142.405 97.5684C142.302 97.7691 142.245 97.9902 142.239 98.2156C142.235 98.5708 142.354 98.9163 142.575 99.1945C142.796 99.4726 143.106 99.6664 143.452 99.7435L143.955 99.865C143.959 99.8812 143.965 99.8967 143.973 99.9109C143.614 99.9077 143.265 100.032 142.989 100.263C142.714 100.493 142.529 100.814 142.468 101.168C142.412 101.558 142.506 101.954 142.73 102.277C142.953 102.601 143.291 102.828 143.675 102.913L144.926 103.216C144.905 103.224 144.887 103.237 144.872 103.254C144.858 103.27 144.848 103.29 144.842 103.312C144.837 103.338 144.84 103.365 144.85 103.389C144.529 103.475 144.245 103.664 144.042 103.927C143.839 104.19 143.728 104.513 143.726 104.845C143.732 105.194 143.854 105.531 144.075 105.801C144.295 106.071 144.601 106.26 144.941 106.335L155.496 108.885C156.973 109.241 158.522 109.149 159.946 108.619C161.369 108.09 162.603 107.147 163.487 105.912C164.25 104.847 164.567 103.527 164.372 102.232C164.177 100.937 163.484 99.7687 162.441 98.9762L161.17 98.0103Z"
              fill="#E98862"
            />
            <g opacity="0.2">
              <path
                d="M152.152 98.599C152.144 98.6344 152.121 98.665 152.09 98.6842C152.059 98.7033 152.022 98.7096 151.986 98.7015L145.398 97.2207C145.38 97.2166 145.363 97.2091 145.348 97.1985C145.333 97.1879 145.32 97.1745 145.31 97.159C145.3 97.1435 145.294 97.1262 145.291 97.1081C145.288 97.09 145.288 97.0715 145.292 97.0536C145.296 97.0357 145.304 97.0187 145.314 97.0037C145.325 96.9887 145.338 96.976 145.354 96.9661C145.369 96.9563 145.387 96.9497 145.405 96.9466C145.423 96.9434 145.441 96.9439 145.459 96.9479L152.047 98.4288C152.065 98.4329 152.082 98.4404 152.097 98.451C152.113 98.4616 152.125 98.4751 152.135 98.4907C152.145 98.5063 152.152 98.5236 152.155 98.5418C152.158 98.56 152.157 98.5785 152.153 98.5965L152.152 98.599Z"
                fill="#0C0C0C"
              />
            </g>
            <g opacity="0.2">
              <path
                d="M151.58 101.523C151.571 101.559 151.549 101.589 151.517 101.609C151.486 101.628 151.448 101.634 151.412 101.625L144.06 99.974C144.042 99.97 144.025 99.9624 144.01 99.9518C143.995 99.9412 143.982 99.9277 143.972 99.9121C143.962 99.8966 143.955 99.8792 143.952 99.861C143.949 99.8429 143.95 99.8243 143.954 99.8064C143.963 99.7707 143.986 99.74 144.017 99.7204C144.048 99.7007 144.085 99.6937 144.122 99.7007L151.474 101.352C151.492 101.356 151.509 101.364 151.524 101.374C151.539 101.385 151.552 101.398 151.562 101.414C151.572 101.43 151.579 101.447 151.582 101.465C151.585 101.483 151.584 101.502 151.58 101.52V101.523Z"
                fill="#0C0C0C"
              />
            </g>
            <g opacity="0.2">
              <path
                d="M150.978 104.693C150.97 104.728 150.947 104.759 150.916 104.778C150.885 104.797 150.848 104.804 150.812 104.796L144.947 103.478C144.911 103.47 144.879 103.448 144.86 103.417C144.84 103.386 144.833 103.348 144.841 103.311C144.849 103.275 144.871 103.244 144.903 103.224C144.934 103.204 144.972 103.198 145.008 103.206L150.873 104.523C150.891 104.527 150.908 104.534 150.923 104.545C150.939 104.556 150.951 104.569 150.961 104.585C150.971 104.6 150.978 104.618 150.981 104.636C150.984 104.654 150.983 104.673 150.979 104.691L150.978 104.693Z"
                fill="#0C0C0C"
              />
            </g>
            <path
              d="M124.999 58.1758L129.253 49.6031C129.346 49.4147 129.478 49.2479 129.639 49.1132C129.801 48.9785 129.989 48.8789 130.191 48.8208C130.393 48.7626 130.605 48.7472 130.813 48.7755C131.021 48.8038 131.222 48.8751 131.401 48.985C131.726 49.1981 131.96 49.5241 132.058 49.9C132.156 50.2759 132.111 50.6748 131.932 51.0194L131.02 52.8577L136.54 48.3946C137.146 47.8875 138.213 47.6525 138.737 48.3689C138.956 48.6314 139.08 48.9606 139.089 49.3028C139.097 49.645 138.99 49.9799 138.783 50.253C138.79 50.2575 138.795 50.2627 138.8 50.2684C138.803 50.2733 138.806 50.2784 138.808 50.2837L139.742 49.5014C139.915 49.3567 140.118 49.2523 140.336 49.196C140.555 49.1398 140.783 49.1329 141.004 49.176C141.226 49.219 141.435 49.311 141.616 49.445C141.797 49.5791 141.946 49.7519 142.052 49.951C142.213 50.2677 142.26 50.6301 142.186 50.9774C142.111 51.3247 141.92 51.6359 141.644 51.8591L141.246 52.1919C141.251 52.2077 141.252 52.2243 141.251 52.2408C141.571 52.0782 141.939 52.035 142.288 52.1188C142.638 52.2026 142.946 52.408 143.158 52.6982C143.38 53.0226 143.472 53.419 143.415 53.8082C143.358 54.1975 143.157 54.5509 142.851 54.798L141.864 55.6242C141.886 55.6223 141.908 55.6257 141.929 55.6341C141.95 55.6426 141.968 55.6558 141.982 55.6728C141.998 55.694 142.008 55.7193 142.01 55.7457C142.336 55.6802 142.674 55.7234 142.973 55.8689C143.271 56.0144 143.514 56.2539 143.663 56.5507C143.813 56.8656 143.853 57.222 143.776 57.5622C143.698 57.9024 143.508 58.2065 143.236 58.4253L134.913 65.3978C133.748 66.3733 132.319 66.9788 130.808 67.1367C129.297 67.2945 127.774 66.9976 126.433 66.2839C125.277 65.6686 124.406 64.6268 124.006 63.3799C123.606 62.1329 123.707 60.7791 124.289 59.6058L124.999 58.1758Z"
              fill="#E98862"
            />
            <g opacity="0.2">
              <path
                d="M133.34 54.6976C133.363 54.7258 133.397 54.7435 133.434 54.7469C133.47 54.7503 133.507 54.7391 133.535 54.7158L138.781 50.4637C138.81 50.4403 138.828 50.4065 138.832 50.3696C138.836 50.3328 138.825 50.2959 138.802 50.2671C138.778 50.2383 138.744 50.22 138.708 50.2161C138.671 50.2123 138.634 50.2232 138.605 50.2466L133.359 54.4987C133.331 54.522 133.313 54.5556 133.309 54.5922C133.305 54.6289 133.316 54.6655 133.339 54.6943L133.34 54.6976Z"
                fill="#0C0C0C"
              />
            </g>
            <g opacity="0.2">
              <path
                d="M135.151 57.0632C135.175 57.0913 135.209 57.1089 135.245 57.1123C135.282 57.1156 135.318 57.1044 135.347 57.0811L141.201 52.3358C141.23 52.3124 141.248 52.2788 141.252 52.2422C141.255 52.2055 141.245 52.1689 141.222 52.1402C141.198 52.1127 141.164 52.0952 141.128 52.0914C141.092 52.0876 141.055 52.0976 141.026 52.1195L135.17 56.864C135.141 56.8872 135.123 56.9209 135.119 56.9575C135.115 56.9941 135.126 57.0308 135.149 57.0595L135.151 57.0632Z"
                fill="#0C0C0C"
              />
            </g>
            <g opacity="0.2">
              <path
                d="M137.098 59.636C137.122 59.6642 137.156 59.6819 137.193 59.6853C137.229 59.6887 137.266 59.6775 137.294 59.6542L141.964 55.869C141.993 55.8456 142.011 55.8118 142.015 55.7749C142.019 55.7381 142.008 55.7012 141.984 55.6724C141.961 55.6436 141.927 55.6253 141.89 55.6214C141.854 55.6176 141.817 55.6285 141.788 55.6519L137.117 59.4371C137.088 59.4604 137.07 59.494 137.066 59.5306C137.062 59.5673 137.073 59.6039 137.096 59.6327L137.098 59.636Z"
                fill="#0C0C0C"
              />
            </g>
            <path
              d="M29.5341 50.8255C29.5341 50.8255 28.9342 59.8269 26.9093 63.0918C21.079 72.4936 19.39 83.07 25.2284 88.596C31.0667 94.1219 68.3057 94.1985 71.127 81.4891C73.502 70.7889 68.4052 69.6382 67.1649 60.8124C66.6038 56.8184 65.06 48.4435 65.06 48.4435"
              fill="#0A0A0A"
            />
            <path
              d="M61.4891 79.6257C61.4249 79.6173 60.7115 91.4536 46.9612 90.4217C37.4421 89.7083 34.0481 79.6083 33.8301 79.6083C34.8564 79.3901 36.5846 79.073 37.0403 78.8296C38.5394 78.0243 40.3933 77.1861 40.8773 74.2751C41.1567 72.5987 40.6831 64.0145 40.8286 62.3162L55.4404 65.5786C55.2361 69.1638 53.8072 77.4747 58.8157 78.9456C59.6489 79.1895 60.5467 79.4133 61.4891 79.6257Z"
              fill="#E98862"
            />
            <path
              opacity="0.5"
              d="M55.6452 75.5495C55.4163 74.8119 55.2689 74.0515 55.2057 73.2818C55.0451 71.5254 55.0772 69.7567 55.3012 68.0073C52.3316 67.6064 49.5339 66.3806 47.2261 64.4691C46.9548 65.471 45.4625 69.8495 45.8757 70.8017C46.6561 72.602 50.3257 75.5495 55.6452 75.5495Z"
              fill="#0C0C0C"
            />
            <path
              d="M53.7558 71.8621C47.9948 72.4209 40.5411 70.1152 38.9971 62.4433L37.6039 55.5211C36.0599 47.8495 38.8375 40.8194 46.0607 39.3656C53.2841 37.9127 59.9347 43.0441 61.4788 50.716L62.0957 53.7806C62.6881 56.7242 64.034 70.8674 53.7558 71.8621Z"
              fill="#E98862"
            />
            <path
              opacity="0.1"
              d="M50.0938 61.8088C51.0418 61.6957 51.7431 61.0403 51.6601 60.345C51.5771 59.6496 50.7413 59.1776 49.7933 59.2907C48.8453 59.4038 48.144 60.0592 48.227 60.7546C48.3099 61.45 49.1457 61.922 50.0938 61.8088Z"
              fill="#0C0C0C"
            />
            <path
              opacity="0.1"
              d="M60.1113 59.0289C60.1952 59.7232 61.032 60.1946 61.9801 60.0828C62.1439 60.0632 62.3052 60.0265 62.4615 59.9736C62.5056 59.1457 62.5082 58.3493 62.4841 57.612C62.2208 57.5461 61.9475 57.5301 61.6783 57.5647C60.7302 57.6765 60.0292 58.3317 60.1113 59.0289Z"
              fill="#0C0C0C"
            />
            <path
              opacity="0.5"
              d="M55.9223 61.1751C55.927 61.1746 55.9317 61.1738 55.9363 61.1728C56.2291 61.1118 56.5182 61.0347 56.8025 60.9417C57.2266 60.7998 57.7804 60.5668 57.7044 60.1831C57.6167 59.7461 55.4691 55.2707 55.2255 54.7625C55.2155 54.7395 55.201 54.7188 55.1828 54.7016C55.1647 54.6844 55.1432 54.6711 55.1198 54.6623C55.0963 54.6536 55.0714 54.6497 55.0464 54.6508C55.0214 54.652 54.9969 54.6581 54.9743 54.669C54.9517 54.6798 54.9316 54.695 54.9151 54.7138C54.8986 54.7326 54.886 54.7546 54.8781 54.7783C54.8703 54.8021 54.8673 54.8272 54.8694 54.8521C54.8714 54.877 54.8785 54.9013 54.8902 54.9234C55.8058 56.8293 57.2806 59.963 57.3398 60.2572C57.2934 60.3944 56.5899 60.6623 55.8637 60.8087C55.8396 60.8126 55.8165 60.8212 55.7957 60.834C55.7749 60.8468 55.7569 60.8636 55.7426 60.8834C55.7283 60.9032 55.7181 60.9256 55.7125 60.9493C55.7068 60.9731 55.7059 60.9977 55.7098 61.0218C55.7137 61.0459 55.7223 61.069 55.7351 61.0897C55.7479 61.1105 55.7647 61.1285 55.7845 61.1428C55.8043 61.1571 55.8267 61.1674 55.8504 61.173C55.8742 61.1786 55.8988 61.1795 55.9229 61.1756L55.9223 61.1751Z"
              fill="#0C0C0C"
            />
            <path
              d="M31.8404 58.0065L38.3162 56.7416C43.2079 54.696 44.5957 46.1708 44.5957 46.1708C44.5957 46.1708 50.6328 51.9203 65.0612 48.4435C65.0612 48.4435 61.927 28.3016 40.6222 34.4169C33.7528 36.3882 28.8867 43.3903 29.6104 52.6646C30.1176 59.1621 31.8404 58.0065 31.8404 58.0065Z"
              fill="#0A0A0A"
            />
            <path
              d="M39.9161 64.6904C37.721 65.1321 35.4689 63.1418 35.0263 60.9462C34.5837 58.7506 36.1205 57.1825 38.3156 56.7404L39.7428 57.9838L41.803 64.3101L39.9161 64.6904Z"
              fill="#E98862"
            />
            <path
              d="M56.7815 51.1935C57.3307 50.8052 57.973 50.5692 58.643 50.5095C58.9797 50.4772 59.3193 50.4961 59.6503 50.5654C59.9841 50.6334 60.308 50.7431 60.6145 50.8918L60.624 50.8962C60.658 50.9112 60.6965 50.9123 60.7313 50.8993C60.7661 50.8863 60.7944 50.8602 60.8102 50.8266C60.826 50.793 60.828 50.7546 60.8158 50.7195C60.8037 50.6844 60.7782 50.6555 60.745 50.6389C60.4202 50.4674 60.0751 50.3375 59.7179 50.2522C59.3582 50.1647 58.9873 50.1319 58.6178 50.1547C57.8694 50.196 57.1458 50.4372 56.5222 50.8532C56.499 50.8689 56.4791 50.8891 56.4636 50.9126C56.4482 50.936 56.4375 50.9623 56.4323 50.9899C56.427 51.0175 56.4272 51.0458 56.4329 51.0733C56.4386 51.1008 56.4497 51.1269 56.4655 51.1501C56.4813 51.1733 56.5015 51.1932 56.525 51.2086C56.5485 51.2239 56.5748 51.2345 56.6024 51.2397C56.63 51.2449 56.6583 51.2446 56.6858 51.2389C56.7133 51.2331 56.7394 51.222 56.7625 51.2061L56.7676 51.2027L56.7815 51.1935Z"
              fill="#0C0C0C"
            />
            <path
              d="M50.8661 52.0111C50.1307 51.8648 49.3695 51.9185 48.662 52.1667C48.3123 52.2872 47.9827 52.4594 47.6841 52.6778C47.3867 52.8933 47.1176 53.1454 46.8833 53.4283C46.8596 53.4564 46.8478 53.4926 46.8502 53.5293C46.8526 53.5659 46.8692 53.6002 46.8963 53.625C46.9235 53.6497 46.9592 53.663 46.9959 53.662C47.0327 53.661 47.0676 53.6458 47.0934 53.6197L47.101 53.6118C47.3271 53.3571 47.5843 53.1318 47.8665 52.9412C48.1459 52.7507 48.4524 52.6035 48.7758 52.5045C49.4175 52.3029 50.1013 52.275 50.7574 52.4235L50.7736 52.4277C50.8286 52.441 50.8867 52.4319 50.9351 52.4024C50.9835 52.3729 51.0181 52.3254 51.0315 52.2704C51.0448 52.2153 51.0357 52.1572 51.0062 52.1088C50.9767 52.0605 50.9292 52.0258 50.8742 52.0125L50.8661 52.0111Z"
              fill="#0C0C0C"
            />
            <path
              d="M38.3206 56.6348C42.6736 55.0142 44.1182 52.0083 44.563 49.7713C44.8509 48.2794 44.824 46.7438 44.484 45.2629L44.3493 45.3001C44.6842 46.7617 44.7101 48.2771 44.4253 49.7492C43.986 51.9496 42.5621 54.9075 38.2717 56.5044L38.3206 56.6348Z"
              fill="#0C0C0C"
            />
            <path
              d="M72.6878 81.0336L114.021 94.8498L101.886 100.244L122.495 57.9629L139.339 65.8128L120.217 108.787C119.25 110.96 117.533 112.713 115.381 113.724C113.228 114.736 110.783 114.94 108.493 114.298L108.082 114.181L66.123 102.401L72.6878 81.0336Z"
              fill="#0341B5"
            />
            <path
              d="M46.7048 87.4627C37.1789 87.0136 36.778 78.9285 36.778 78.9285C36.778 78.9285 32.0581 79.2336 28.9206 79.658C23.7838 80.353 20.3951 82.0948 17.6982 84.7915C15.1896 87.3003 13.6623 90.0146 15.2784 107.343C16.4486 119.891 15.6252 147.489 15.6252 147.489H73.6736C73.6736 147.489 77.7271 107.617 78.2076 101.97C79.1247 91.1873 81.7157 88.8069 76.4661 83.2527C72.659 79.2247 62.8306 78.9285 58.8747 78.9291C58.8101 78.9291 59.6774 88.0743 46.7048 87.4627Z"
              fill="#0341B5"
            />
            <path
              d="M57.8534 62.6872C55.9816 63.639 53.8461 63.9399 51.7842 63.5425C51.7128 63.5291 51.6391 63.5364 51.5717 63.5633C51.5042 63.5902 51.4458 63.6358 51.4033 63.6947C51.3608 63.7536 51.3359 63.8234 51.3316 63.8959C51.3272 63.9684 51.3436 64.0406 51.3788 64.1042C51.9935 65.1872 53.4515 67.038 55.9528 66.2836C57.5678 65.7963 58.1783 64.1349 58.4047 63.1069C58.4201 63.0358 58.415 62.9618 58.3899 62.8935C58.3647 62.8252 58.3206 62.7655 58.2627 62.7215C58.2048 62.6774 58.1355 62.6508 58.063 62.6447C57.9905 62.6386 57.9178 62.6534 57.8534 62.6872Z"
              fill="white"
            />
            <path
              d="M57.9705 54.3629C58.47 54.3629 58.8749 53.958 58.8749 53.4585C58.8749 52.9589 58.47 52.554 57.9705 52.554C57.471 52.554 57.066 52.9589 57.066 53.4585C57.066 53.958 57.471 54.3629 57.9705 54.3629Z"
              fill="#0C0C0C"
            />
            <path
              d="M49.2796 55.8843C49.7791 55.8843 50.184 55.4794 50.184 54.9799C50.184 54.4804 49.7791 54.0754 49.2796 54.0754C48.78 54.0754 48.3751 54.4804 48.3751 54.9799C48.3751 55.4794 48.78 55.8843 49.2796 55.8843Z"
              fill="#0C0C0C"
            />
            <path
              d="M78.0785 105.898C78.0727 105.899 78.0668 105.899 78.0609 105.898C78.0242 105.894 77.9909 105.875 77.9681 105.845C77.9454 105.816 77.9352 105.779 77.9397 105.743L78.8385 98.456C78.8405 98.4376 78.8461 98.4199 78.855 98.4038C78.8639 98.3877 78.876 98.3735 78.8906 98.3622C78.9051 98.3509 78.9218 98.3426 78.9396 98.3379C78.9574 98.3332 78.976 98.3321 78.9942 98.3347C79.0124 98.3369 79.03 98.3427 79.046 98.3518C79.062 98.3609 79.076 98.373 79.0873 98.3875C79.0986 98.4019 79.1069 98.4185 79.1118 98.4362C79.1166 98.4539 79.118 98.4724 79.1157 98.4906L78.2169 105.777C78.2124 105.81 78.1959 105.841 78.1705 105.864C78.145 105.886 78.1124 105.898 78.0785 105.898Z"
              fill="#0C0C0C"
            />
            <path
              d="M225.013 49.6738C225.013 49.6738 221.55 45.7851 221.952 38.5028C222.263 32.8642 226.612 37.4242 226.612 37.4242C226.612 37.4242 226.876 33.3663 229.676 34.3325C232.477 35.2987 233.264 39.7733 233.264 39.7733"
              fill="#0C0C0C"
            />
            <path
              d="M244.473 37.7626C244.473 37.7626 258.459 42.1435 249.432 60.479L248.151 60.3114L245.55 59.9719"
              fill="#0C0C0C"
            />
            <path
              d="M224.577 79.596C224.641 79.5876 225.352 91.3845 239.057 90.3563C248.544 89.6455 251.927 79.5795 252.145 79.5795C251.122 79.3619 249.399 79.0459 248.945 78.8033C247.451 78.0006 245.602 77.1654 245.121 74.2642C244.843 72.5919 245.314 64.0377 245.169 62.3455L230.606 65.596C230.809 69.1691 232.234 77.4526 227.242 78.9187C226.411 79.1613 225.516 79.3842 224.577 79.596Z"
              fill="#E98862"
            />
            <path
              opacity="0.52"
              d="M230.402 75.5336C230.63 74.7984 230.777 74.0404 230.84 73.2732C231 71.5225 230.968 69.7596 230.745 68.016C233.705 67.6165 236.493 66.3949 238.794 64.4897C239.064 65.4884 240.551 69.8523 240.139 70.8014C239.361 72.5956 235.703 75.5336 230.402 75.5336Z"
              fill="#0C0C0C"
            />
            <path
              d="M232.148 71.5385C237.883 72.1563 245.337 69.9403 246.959 62.3111L248.422 55.4272C250.043 47.7992 247.352 40.7616 240.168 39.2346C232.985 37.7076 226.301 42.751 224.68 50.3801L224.032 53.4277C223.828 54.478 223.695 55.5409 223.635 56.6091C223.457 59.4312 223.197 63.7244 224.499 66.9232C225.728 69.9431 228.484 71.1437 232.148 71.5385Z"
              fill="#E98862"
            />
            <path
              d="M227.592 53.9628C228.092 53.9628 228.497 53.5579 228.497 53.0583C228.497 52.5588 228.092 52.1539 227.592 52.1539C227.093 52.1539 226.688 52.5588 226.688 53.0583C226.688 53.5579 227.093 53.9628 227.592 53.9628Z"
              fill="#0C0C0C"
            />
            <path
              d="M236.183 54.8672C236.682 54.8672 237.087 54.4623 237.087 53.9628C237.087 53.4633 236.682 53.0583 236.183 53.0583C235.683 53.0583 235.278 53.4633 235.278 53.9628C235.278 54.4623 235.683 54.8672 236.183 54.8672Z"
              fill="#0C0C0C"
            />
            <path
              d="M246.019 64.5406C248.202 65.0047 250.468 63.0455 250.932 60.8624C251.396 58.6793 249.882 57.0995 247.699 56.6354L246.263 57.859L244.142 64.1416L246.019 64.5406Z"
              fill="#E98862"
            />
            <path
              d="M244.544 60.5899C244.544 60.5899 245.962 49.6198 242.813 48.2974C240.718 47.4167 234.798 49.4603 230.075 47.5455C228.009 46.7072 225.864 46.833 225.455 47.8062C225.292 48.1915 225.105 42.1522 229.342 38.4416C232.715 35.487 241.675 36.249 245.434 38.1876C255.842 43.5549 248.057 57.202 248.057 57.202L246.821 60.8344L244.544 60.5899Z"
              fill="#0C0C0C"
            />
            <g opacity="0.52">
              <path
                d="M229.945 61.3748L229.931 61.3726C229.227 61.2248 228.063 60.8976 228.173 60.372C228.265 59.9358 230.447 55.4769 230.696 54.9701C230.717 54.9265 230.755 54.8931 230.801 54.8774C230.847 54.8617 230.897 54.8649 230.941 54.8862C230.985 54.9076 231.018 54.9455 231.034 54.9914C231.049 55.0374 231.046 55.0877 231.025 55.1313C230.057 57.1056 228.594 60.1507 228.531 60.4472C228.575 60.5869 229.277 60.861 230.006 61.0138C230.052 61.0241 230.092 61.0515 230.118 61.0904C230.144 61.1293 230.154 61.1768 230.147 61.223C230.139 61.2693 230.114 61.3108 230.076 61.3391C230.039 61.3673 229.992 61.3801 229.945 61.3748Z"
                fill="#0C0C0C"
              />
            </g>
            <path
              d="M229.783 50.229C229.091 49.88 228.318 49.7239 227.546 49.7772C227.166 49.8011 226.792 49.8818 226.436 50.0166C226.084 50.1484 225.75 50.3241 225.442 50.5397C225.391 50.5725 225.354 50.6242 225.34 50.6837C225.327 50.7432 225.337 50.8057 225.369 50.8577C225.401 50.9097 225.452 50.947 225.511 50.9616C225.571 50.9761 225.633 50.9668 225.686 50.9356L225.702 50.9264C225.984 50.7512 226.288 50.6123 226.605 50.5129C226.917 50.413 227.243 50.3611 227.571 50.3589C228.22 50.3494 228.859 50.5114 229.425 50.8286L229.446 50.8412C229.486 50.8648 229.53 50.8803 229.575 50.8869C229.621 50.8934 229.667 50.8909 229.712 50.8794C229.757 50.8679 229.799 50.8478 229.835 50.82C229.872 50.7923 229.903 50.7575 229.927 50.7177C229.95 50.678 229.965 50.634 229.971 50.5883C229.978 50.5426 229.975 50.4962 229.963 50.4516C229.951 50.407 229.931 50.3652 229.903 50.3286C229.875 50.292 229.84 50.2612 229.8 50.2382L229.783 50.229Z"
              fill="#0C0C0C"
            />
            <path
              d="M234.955 51.6269C235.583 51.4657 236.242 51.4733 236.867 51.649C237.183 51.7355 237.485 51.8694 237.761 52.046C238.042 52.2237 238.299 52.436 238.527 52.6778L238.54 52.6903C238.583 52.7321 238.64 52.7556 238.7 52.756C238.76 52.7563 238.818 52.7335 238.862 52.6923C238.905 52.6511 238.931 52.5946 238.934 52.5347C238.937 52.4747 238.917 52.416 238.878 52.3707C238.635 52.0833 238.358 51.8277 238.052 51.6098C237.742 51.3883 237.401 51.2142 237.041 51.0935C236.308 50.8431 235.521 50.7949 234.763 50.9538C234.718 50.9635 234.675 50.9821 234.638 51.0083C234.6 51.0345 234.568 51.0678 234.543 51.1065C234.493 51.1845 234.476 51.2792 234.495 51.3698C234.515 51.4604 234.57 51.5394 234.648 51.5895C234.726 51.6396 234.821 51.6567 234.912 51.6369L234.929 51.6325L234.955 51.6269Z"
              fill="#0C0C0C"
            />
            <path
              d="M228.838 63.0672C230.876 63.5762 233.024 63.3918 234.945 62.5431C235.012 62.5141 235.085 62.5046 235.157 62.5158C235.229 62.5269 235.296 62.5583 235.35 62.6061C235.405 62.654 235.445 62.7164 235.465 62.7861C235.486 62.8558 235.486 62.9298 235.466 62.9996C235.108 64.193 234.102 66.3247 231.496 66.1481C229.812 66.0346 228.846 64.5518 228.394 63.6006C228.363 63.5347 228.351 63.4612 228.36 63.3888C228.369 63.3164 228.399 63.2481 228.446 63.192C228.493 63.136 228.554 63.0944 228.624 63.0723C228.693 63.0502 228.768 63.0484 228.838 63.0672Z"
              fill="white"
            />
            <path
              d="M236.922 40.0046C237.896 37.7195 237.426 35.331 235.874 34.6697C234.321 34.0083 232.274 35.3246 231.3 37.6096C230.327 39.8946 230.796 42.2831 232.349 42.9445C233.901 43.6058 235.949 42.2896 236.922 40.0046Z"
              fill="#0C0C0C"
            />
            <path
              d="M239.27 87.4627C248.796 87.0136 249.197 78.9285 249.197 78.9285C249.197 78.9285 253.916 79.2336 257.054 79.658C262.191 80.353 265.58 82.0948 268.276 84.7915C270.785 87.3003 272.312 90.0146 270.696 107.343C269.526 119.891 270.35 147.489 270.35 147.489H212.301C212.301 147.489 208.248 107.618 207.767 101.97C206.85 91.1873 204.259 88.8069 209.509 83.2527C213.316 79.2247 223.144 78.9285 227.1 78.9291C227.164 78.9291 226.298 88.0743 239.27 87.4627Z"
              fill="#0341B5"
            />
            <path
              d="M207.63 85.7498L192.622 117.567L163.025 95.3103L151.269 110.942L190.46 140.414C190.811 140.675 191.177 140.913 191.557 141.129C192.677 141.757 193.909 142.157 195.184 142.308C196.459 142.46 197.751 142.358 198.986 142.01C200.222 141.662 201.376 141.074 202.385 140.279C203.393 139.485 204.234 138.499 204.862 137.38L205.032 137.077L227.929 96.2072L207.63 85.7498Z"
              fill="#0341B5"
            />
            <path
              d="M272.577 147.769H8.22738C8.15328 147.769 8.08221 147.739 8.02981 147.687C7.97741 147.635 7.94797 147.563 7.94797 147.489C7.94797 147.415 7.97741 147.344 8.02981 147.292C8.08221 147.239 8.15328 147.21 8.22738 147.21H272.577C272.651 147.21 272.722 147.239 272.774 147.292C272.827 147.344 272.856 147.415 272.856 147.489C272.856 147.563 272.827 147.635 272.774 147.687C272.722 147.739 272.651 147.769 272.577 147.769Z"
              fill="#292A2E"
            />
            <path d="M215.079 105.929H73.5221V154.315H215.079V105.929Z" fill="white" />
            <path
              d="M215.218 154.455H73.3824V105.789H215.218V154.455ZM73.6618 154.176H214.939V106.069H73.6618V154.176Z"
              fill="#0C0C0C"
            />
            <path
              d="M66.5323 120.717L75.2704 116.814C75.4625 116.728 75.6702 116.684 75.8805 116.683C76.0908 116.682 76.299 116.724 76.4918 116.808C76.6847 116.892 76.8579 117.015 77.0006 117.17C77.1433 117.324 77.2522 117.507 77.3205 117.705C77.4352 118.076 77.408 118.477 77.2442 118.829C77.0804 119.181 76.7916 119.46 76.4339 119.611L74.5602 120.45L81.6604 120.523C82.45 120.517 83.4224 121.015 83.3704 121.901C83.3727 122.243 83.2589 122.576 83.0476 122.846C82.8363 123.115 82.5399 123.305 82.2069 123.384C82.2089 123.391 82.21 123.399 82.2103 123.407C82.2095 123.412 82.2082 123.418 82.2066 123.424L83.4243 123.415C83.6497 123.414 83.8725 123.462 84.0766 123.558C84.2807 123.653 84.4609 123.793 84.6042 123.967C84.7474 124.141 84.8501 124.345 84.9047 124.564C84.9593 124.782 84.9644 125.01 84.9198 125.231C84.8421 125.578 84.6478 125.887 84.3692 126.108C84.0907 126.328 83.7449 126.446 83.3897 126.442L82.8716 126.446C82.8648 126.461 82.8553 126.475 82.8437 126.487C83.1943 126.565 83.5054 126.766 83.7215 127.053C83.9375 127.34 84.0444 127.695 84.0231 128.054C83.9884 128.445 83.8072 128.81 83.5157 129.074C83.2241 129.338 82.8437 129.483 82.4503 129.479L81.1633 129.488C81.1814 129.5 81.1962 129.517 81.2067 129.536C81.2172 129.556 81.223 129.577 81.2236 129.6C81.2225 129.626 81.2138 129.651 81.1985 129.673C81.4913 129.83 81.7245 130.079 81.8622 130.381C81.9998 130.683 82.0344 131.022 81.9605 131.346C81.8759 131.685 81.6796 131.985 81.4033 132.197C81.1271 132.41 80.787 132.524 80.4382 132.52L69.5802 132.597C68.0613 132.608 66.5738 132.165 65.3083 131.325C64.0428 130.485 63.057 129.286 62.4772 127.882C61.9772 126.672 61.969 125.314 62.4542 124.097C62.9394 122.881 63.8799 121.901 65.0757 121.367L66.5323 120.717Z"
              fill="#E98862"
            />
            <g opacity="0.2">
              <path
                d="M75.1785 123.345C75.179 123.382 75.194 123.417 75.2201 123.443C75.2463 123.468 75.2815 123.483 75.3182 123.483L82.0706 123.543C82.1076 123.544 82.1433 123.529 82.1697 123.503C82.1962 123.477 82.2112 123.442 82.2115 123.405C82.2119 123.368 82.1975 123.332 82.1715 123.306C82.1455 123.279 82.1101 123.264 82.0731 123.264L75.3208 123.203C75.2837 123.203 75.2482 123.218 75.222 123.244C75.1958 123.27 75.181 123.306 75.181 123.343L75.1785 123.345Z"
                fill="#0C0C0C"
              />
            </g>
            <g opacity="0.2">
              <path
                d="M75.0695 126.323C75.0701 126.36 75.085 126.395 75.1111 126.421C75.1373 126.447 75.1725 126.461 75.2093 126.461L82.7448 126.529C82.7818 126.529 82.8174 126.514 82.8436 126.488C82.8698 126.462 82.8845 126.426 82.8845 126.389C82.8832 126.353 82.8681 126.318 82.8422 126.292C82.8163 126.266 82.7814 126.251 82.7448 126.25L75.2093 126.182C75.1908 126.182 75.1725 126.185 75.1554 126.192C75.1382 126.199 75.1227 126.209 75.1096 126.222C75.0964 126.235 75.086 126.251 75.0789 126.268C75.0718 126.285 75.0681 126.303 75.0681 126.321L75.0695 126.323Z"
                fill="#0C0C0C"
              />
            </g>
            <g opacity="0.2">
              <path
                d="M74.9329 129.546C74.9334 129.583 74.9484 129.618 74.9745 129.644C75.0007 129.669 75.0359 129.684 75.0726 129.684L81.0837 129.738C81.1207 129.738 81.1564 129.724 81.1828 129.698C81.2093 129.672 81.2243 129.637 81.2246 129.6C81.225 129.563 81.2106 129.527 81.1846 129.501C81.1586 129.474 81.1232 129.459 81.0862 129.459L75.0751 129.404C75.0381 129.404 75.0026 129.419 74.9764 129.445C74.9502 129.472 74.9354 129.507 74.9354 129.544L74.9329 129.546Z"
                fill="#0C0C0C"
              />
            </g>
            <path
              d="M69.0333 136.275L20.5864 147.288C18.977 147.464 17.3489 147.263 15.8298 146.704C14.3107 146.144 12.942 145.24 11.8311 144.062C10.7201 142.885 9.89717 141.466 9.42676 139.916C8.95635 138.367 8.85129 136.73 9.11982 135.134L14.664 90.5393C15.125 87.7989 16.6559 85.3538 18.9197 83.742C21.1835 82.1303 23.9949 81.4838 26.7354 81.9449C29.4758 82.406 31.9209 83.9369 33.5326 86.2007C35.1444 88.4645 35.7908 91.2759 35.3298 94.0163L32.6599 125.935L66.3194 118.318L69.0333 136.275Z"
              fill="#0341B5"
            />
            <path
              d="M25.8487 127.19C25.8136 127.189 25.7799 127.176 25.7543 127.152C25.7287 127.128 25.7131 127.095 25.7105 127.06C25.7079 127.025 25.7186 126.99 25.7404 126.963C25.7623 126.936 25.7936 126.917 25.8283 126.912L32.5792 125.47C32.5974 125.467 32.6159 125.468 32.6338 125.472C32.6517 125.477 32.6685 125.485 32.6833 125.496C32.6981 125.506 32.7106 125.52 32.72 125.536C32.7293 125.552 32.7354 125.569 32.7379 125.588C32.7434 125.624 32.7341 125.662 32.7121 125.691C32.6901 125.721 32.6572 125.741 32.6206 125.746L25.8696 127.188C25.8627 127.189 25.8557 127.19 25.8487 127.19Z"
              fill="#0C0C0C"
            />
            <path
              d="M22.04 147.489C22.0029 147.492 21.9664 147.479 21.9385 147.455C21.9106 147.43 21.8936 147.396 21.8912 147.359C21.8888 147.322 21.9012 147.285 21.9257 147.257C21.9502 147.229 21.9848 147.212 22.0218 147.21L68.7293 136.209L66.0827 118.522L32.6242 125.745C32.6026 125.748 32.5806 125.745 32.56 125.738C32.5394 125.731 32.5207 125.719 32.5055 125.704C32.4902 125.688 32.4789 125.669 32.4724 125.648C32.4659 125.627 32.4644 125.605 32.468 125.583L34.3448 107.346C34.3476 107.328 34.3541 107.31 34.3637 107.294C34.3734 107.279 34.3861 107.265 34.4011 107.255C34.4161 107.244 34.4331 107.236 34.4511 107.232C34.4691 107.228 34.4877 107.228 34.5058 107.231C34.5423 107.237 34.5749 107.258 34.5964 107.288C34.6179 107.318 34.6265 107.356 34.6204 107.392L32.7762 125.442L66.1478 118.214C66.1658 118.209 66.1846 118.208 66.203 118.21C66.2215 118.212 66.2393 118.219 66.2554 118.228C66.2715 118.237 66.2855 118.25 66.2966 118.265C66.3078 118.28 66.3159 118.297 66.3205 118.315L69.0345 136.274C69.043 136.309 69.0375 136.346 69.0191 136.377C69.0007 136.409 68.9708 136.432 68.9358 136.441L22.0581 147.488C22.0521 147.489 22.0461 147.489 22.04 147.489Z"
              fill="#0C0C0C"
            />
            <path
              d="M219.442 129.099L210.704 125.197C210.512 125.111 210.304 125.066 210.094 125.065C209.884 125.064 209.676 125.107 209.483 125.191C209.29 125.274 209.117 125.398 208.974 125.552C208.832 125.706 208.723 125.889 208.654 126.088C208.54 126.459 208.567 126.859 208.731 127.212C208.894 127.564 209.183 127.842 209.541 127.994L211.415 128.832L204.314 128.905C203.525 128.899 202.552 129.398 202.604 130.284C202.602 130.626 202.716 130.959 202.927 131.228C203.139 131.497 203.435 131.687 203.768 131.766C203.766 131.774 203.765 131.781 203.764 131.789C203.765 131.795 203.766 131.8 203.768 131.806L202.551 131.797C202.325 131.796 202.102 131.845 201.898 131.94C201.694 132.036 201.514 132.176 201.371 132.35C201.227 132.524 201.125 132.727 201.07 132.946C201.015 133.165 201.01 133.393 201.055 133.614C201.133 133.96 201.327 134.27 201.605 134.49C201.884 134.711 202.23 134.829 202.585 134.825L203.103 134.828C203.11 134.844 203.12 134.857 203.131 134.869C202.781 134.948 202.469 135.149 202.253 135.436C202.037 135.723 201.93 136.077 201.952 136.436C201.986 136.828 202.168 137.192 202.459 137.456C202.751 137.721 203.131 137.865 203.525 137.861L204.812 137.87C204.794 137.883 204.779 137.899 204.768 137.919C204.758 137.938 204.752 137.96 204.751 137.982C204.752 138.008 204.761 138.034 204.776 138.055C204.484 138.212 204.25 138.461 204.113 138.763C203.975 139.066 203.941 139.405 204.014 139.729C204.099 140.067 204.295 140.367 204.572 140.58C204.848 140.793 205.188 140.907 205.537 140.902L216.395 140.98C217.914 140.99 219.402 140.547 220.667 139.707C221.933 138.867 222.918 137.668 223.498 136.264C223.998 135.053 224.006 133.695 223.521 132.479C223.036 131.262 222.095 130.283 220.899 129.749L219.442 129.099Z"
              fill="#E98862"
            />
            <g opacity="0.2">
              <path
                d="M210.796 131.728C210.796 131.764 210.781 131.799 210.754 131.825C210.728 131.851 210.693 131.865 210.656 131.865L203.904 131.926C203.886 131.926 203.867 131.923 203.85 131.916C203.833 131.909 203.818 131.899 203.805 131.886C203.792 131.873 203.781 131.858 203.774 131.841C203.767 131.824 203.763 131.806 203.763 131.787C203.763 131.769 203.766 131.751 203.773 131.734C203.78 131.717 203.79 131.701 203.803 131.688C203.816 131.675 203.831 131.665 203.848 131.658C203.865 131.65 203.883 131.647 203.902 131.647L210.654 131.586C210.691 131.586 210.726 131.6 210.753 131.627C210.779 131.653 210.794 131.688 210.794 131.725L210.796 131.728Z"
                fill="#0C0C0C"
              />
            </g>
            <g opacity="0.2">
              <path
                d="M210.905 134.706C210.905 134.742 210.89 134.777 210.864 134.803C210.838 134.829 210.803 134.843 210.767 134.844L203.231 134.911C203.194 134.911 203.158 134.897 203.132 134.871C203.106 134.844 203.091 134.809 203.091 134.772C203.092 134.735 203.107 134.7 203.133 134.674C203.159 134.648 203.194 134.633 203.231 134.632L210.766 134.564C210.803 134.564 210.839 134.579 210.865 134.605C210.891 134.631 210.906 134.667 210.906 134.704L210.905 134.706Z"
                fill="#0C0C0C"
              />
            </g>
            <g opacity="0.2">
              <path
                d="M211.042 137.929C211.041 137.965 211.027 138 211 138.026C210.974 138.052 210.939 138.066 210.902 138.066L204.891 138.121C204.873 138.121 204.855 138.117 204.838 138.11C204.821 138.104 204.805 138.093 204.792 138.081C204.779 138.068 204.769 138.052 204.761 138.035C204.754 138.019 204.75 138 204.75 137.982C204.75 137.964 204.754 137.946 204.76 137.929C204.767 137.912 204.777 137.896 204.79 137.883C204.803 137.87 204.818 137.859 204.835 137.852C204.852 137.845 204.87 137.841 204.889 137.841L210.9 137.787C210.937 137.787 210.972 137.802 210.999 137.828C211.025 137.854 211.039 137.89 211.039 137.927L211.042 137.929Z"
                fill="#0C0C0C"
              />
            </g>
            <path
              d="M219.735 144.658L265.388 147.288C266.997 147.464 268.626 147.263 270.145 146.704C271.664 146.144 273.032 145.24 274.143 144.062C275.254 142.885 276.077 141.466 276.548 139.916C277.018 138.367 277.123 136.73 276.855 135.134L271.312 90.5379C271.083 89.181 270.59 87.8823 269.86 86.716C269.13 85.5497 268.177 84.5387 267.056 83.7406C265.935 82.9426 264.668 82.3731 263.327 82.0648C261.986 81.7564 260.597 81.7152 259.24 81.9435C257.883 82.1718 256.585 82.6652 255.418 83.3954C254.252 84.1256 253.241 85.0783 252.443 86.1993C251.645 87.3202 251.075 88.5873 250.767 89.9284C250.459 91.2694 250.418 92.658 250.646 94.0149L253.316 127.89L219.936 126.699L219.735 144.658Z"
              fill="#0341B5"
            />
            <path
              d="M260.126 127.748C260.161 127.748 260.195 127.735 260.22 127.711C260.246 127.687 260.262 127.654 260.264 127.619C260.267 127.584 260.256 127.549 260.234 127.522C260.213 127.494 260.181 127.476 260.147 127.471L253.396 127.426C253.377 127.423 253.359 127.424 253.341 127.428C253.323 127.433 253.306 127.44 253.291 127.451C253.277 127.462 253.264 127.476 253.255 127.492C253.245 127.508 253.239 127.525 253.237 127.544C253.231 127.58 253.241 127.618 253.263 127.647C253.285 127.677 253.318 127.697 253.354 127.702L260.105 127.747C260.112 127.748 260.119 127.748 260.126 127.748Z"
              fill="#0C0C0C"
            />
            <path
              d="M263.935 147.489C263.972 147.492 264.009 147.479 264.037 147.455C264.064 147.43 264.081 147.396 264.084 147.359C264.086 147.322 264.074 147.285 264.049 147.257C264.025 147.229 263.99 147.212 263.953 147.21L220.039 144.593L220.171 126.906L253.35 127.702C253.371 127.705 253.393 127.702 253.414 127.695C253.435 127.688 253.453 127.676 253.469 127.661C253.484 127.645 253.495 127.626 253.502 127.605C253.508 127.584 253.51 127.562 253.506 127.54L251.629 107.347C251.627 107.329 251.62 107.311 251.611 107.296C251.601 107.28 251.588 107.266 251.573 107.256C251.558 107.245 251.541 107.238 251.523 107.234C251.505 107.229 251.487 107.229 251.469 107.232C251.45 107.235 251.433 107.242 251.417 107.252C251.402 107.261 251.388 107.274 251.378 107.289C251.367 107.304 251.359 107.321 251.355 107.339C251.351 107.357 251.351 107.375 251.354 107.393L253.199 127.399L220.107 126.597C220.089 126.593 220.07 126.591 220.052 126.594C220.033 126.596 220.016 126.602 219.999 126.611C219.983 126.621 219.969 126.633 219.958 126.648C219.947 126.663 219.939 126.68 219.934 126.698L219.735 144.657C219.726 144.692 219.732 144.73 219.75 144.761C219.769 144.792 219.798 144.815 219.833 144.825L263.916 147.487C263.922 147.488 263.929 147.489 263.935 147.489Z"
              fill="#0C0C0C"
            />
            <path
              d="M107.082 137.588H103.372L101.29 129.515C101.213 129.228 101.082 128.634 100.896 127.733C100.711 126.833 100.604 126.228 100.576 125.92C100.534 126.298 100.429 126.906 100.26 127.744C100.092 128.581 99.9622 129.179 99.8715 129.536L97.8005 137.588H94.1005L90.1792 122.22H93.3854L95.3511 130.609C95.6946 132.158 95.9434 133.5 96.0975 134.635C96.1394 134.236 96.2358 133.617 96.3866 132.78C96.5375 131.943 96.6795 131.292 96.8125 130.83L99.0514 122.22H102.131L104.37 130.83C104.468 131.215 104.591 131.804 104.738 132.596C104.886 133.387 104.997 134.067 105.074 134.635C105.144 134.089 105.255 133.407 105.409 132.591C105.562 131.774 105.702 131.114 105.828 130.609L107.784 122.221H110.99L107.082 137.588Z"
              fill="#0CBC8B"
            />
            <path
              d="M121.778 137.588H112.927V122.22H121.778V124.891H116.186V128.265H121.39V130.934H116.186V134.897H121.778V137.588Z"
              fill="#0CBC8B"
            />
            <path
              d="M124.984 137.588V122.22H128.243V134.898H134.476V137.589L124.984 137.588Z"
              fill="#0CBC8B"
            />
            <path
              d="M143.675 124.711C143.122 124.686 142.572 124.799 142.075 125.04C141.577 125.282 141.147 125.644 140.825 126.093C140.152 127.015 139.816 128.299 139.816 129.946C139.816 133.373 141.102 135.087 143.674 135.087C145.016 135.035 146.341 134.761 147.595 134.277V137.01C146.253 137.551 144.816 137.819 143.369 137.798C141.134 137.798 139.424 137.12 138.239 135.764C137.054 134.408 136.462 132.462 136.463 129.924C136.431 128.477 136.729 127.04 137.335 125.725C137.873 124.572 138.747 123.608 139.842 122.96C141.009 122.299 142.333 121.967 143.674 121.999C145.236 122.015 146.774 122.385 148.172 123.081L147.121 125.73C146.556 125.461 145.977 125.223 145.386 125.015C144.837 124.818 144.259 124.715 143.675 124.711Z"
              fill="#0CBC8B"
            />
            <path
              d="M164.814 129.883C164.814 132.427 164.183 134.382 162.922 135.749C161.661 137.115 159.852 137.799 157.498 137.798C155.143 137.798 153.335 137.115 152.074 135.749C150.812 134.382 150.182 132.42 150.182 129.862C150.182 127.304 150.814 125.35 152.079 124.001C153.344 122.653 155.157 121.978 157.519 121.978C159.88 121.978 161.687 122.658 162.938 124.017C164.189 125.377 164.815 127.332 164.814 129.883ZM153.598 129.883C153.598 131.6 153.924 132.893 154.576 133.762C155.228 134.631 156.202 135.065 157.498 135.065C160.098 135.065 161.398 133.338 161.398 129.883C161.398 126.421 160.105 124.69 157.519 124.69C156.223 124.69 155.245 125.126 154.585 125.999C153.925 126.871 153.596 128.166 153.598 129.883Z"
              fill="#0CBC8B"
            />
            <path
              d="M174.506 137.588L170.806 125.531H170.712C170.845 127.984 170.911 129.62 170.911 130.44V137.588H167.999V122.22H172.436L176.073 133.973H176.136L179.994 122.22H184.43V137.588H181.392V130.314C181.392 129.971 181.397 129.575 181.407 129.126C181.417 128.677 181.465 127.486 181.549 125.552H181.455L177.492 137.588H174.506Z"
              fill="#0CBC8B"
            />
            <path
              d="M197.149 137.588H188.298V122.22H197.149V124.891H191.557V128.265H196.761V130.934H191.557V134.897H197.149V137.588Z"
              fill="#0CBC8B"
            />
          </g>
          <defs>
            <clipPath id="clip0_1_1577">
              <rect width="277" height="154.455" fill="white" />
            </clipPath>
          </defs>
        </svg>